<svg width="21" height="20" viewBox="0 0 21 20" fill="none" xmlns="http://www.w3.org/2000/svg">
<g filter="url(#filter0_iii_4027_12364)">
<rect x="1" y="0.000244141" width="20" height="20" fill="#C3C3C3"/>
</g>
<g clip-path="url(#clip0_4027_12364)">
<path d="M19.4976 5.00024L2.99998 5.00024L2.99998 6.50119L4.49951 6.50119L4.49951 8.00072L5.99904 8.00072L5.99904 9.50166L7.49856 9.50166L7.49856 11.0012L8.99809 11.0012L8.99809 12.5036L10.4976 12.5036L10.4976 12.5007L10.4976 13.9988L12 13.9988L12 12.5021L13.4995 12.5021L13.4995 10.9998L14.999 10.9998L14.999 9.50024L16.5 9.50024L16.5 8.00072L17.9995 8.00072L17.9995 6.50119L19.4976 6.50119L19.4976 5.00024Z" fill="#030303"/>
</g>
<defs>
<filter id="filter0_iii_4027_12364" x="1" y="0.000244141" width="20" height="20" filterUnits="userSpaceOnUse" color-interpolation-filters="sRGB">
<feFlood flood-opacity="0" result="BackgroundImageFix"/>
<feBlend mode="normal" in="SourceGraphic" in2="BackgroundImageFix" result="shape"/>
<feColorMatrix in="SourceAlpha" type="matrix" values="0 0 0 0 0 0 0 0 0 0 0 0 0 0 0 0 0 0 127 0" result="hardAlpha"/>
<feOffset dx="-1.66667" dy="-1.66667"/>
<feComposite in2="hardAlpha" operator="arithmetic" k2="-1" k3="1"/>
<feColorMatrix type="matrix" values="0 0 0 0 0.495833 0 0 0 0 0.495833 0 0 0 0 0.495833 0 0 0 1 0"/>
<feBlend mode="normal" in2="shape" result="effect1_innerShadow_4027_12364"/>
<feColorMatrix in="SourceAlpha" type="matrix" values="0 0 0 0 0 0 0 0 0 0 0 0 0 0 0 0 0 0 127 0" result="hardAlpha"/>
<feOffset dx="0.833333" dy="0.833333"/>
<feComposite in2="hardAlpha" operator="arithmetic" k2="-1" k3="1"/>
<feColorMatrix type="matrix" values="0 0 0 0 0.941667 0 0 0 0 0.941667 0 0 0 0 0.941667 0 0 0 1 0"/>
<feBlend mode="normal" in2="effect1_innerShadow_4027_12364" result="effect2_innerShadow_4027_12364"/>
<feColorMatrix in="SourceAlpha" type="matrix" values="0 0 0 0 0 0 0 0 0 0 0 0 0 0 0 0 0 0 127 0" result="hardAlpha"/>
<feOffset dx="-0.833333" dy="-0.833333"/>
<feComposite in2="hardAlpha" operator="arithmetic" k2="-1" k3="1"/>
<feColorMatrix type="matrix" values="0 0 0 0 0.15 0 0 0 0 0.15 0 0 0 0 0.15 0 0 0 1 0"/>
<feBlend mode="normal" in2="effect2_innerShadow_4027_12364" result="effect3_innerShadow_4027_12364"/>
</filter>
<clipPath id="clip0_4027_12364">
<rect width="18" height="18" fill="white" transform="translate(18 2.00024) rotate(90)"/>
</clipPath>
</defs>
</svg>
